# xmcd
#
# Track frame offsets: 
#        150
#        21375
#        44053
#        65933
#        82126
#        95438
#        112833
#        128593
#        145080
#        159335
#        173757
#        186107
#        195044
#        208584
#        238381
#        251771
#        278415
#        292102
#        304701
#        320306
#        340427
#
# Disc length: 4792 seconds
#
# Revision: 0
# Processed by: cddbd v1.5.2PL0 Copyright (c) Steve Scherf et al.
# Submitted via: ExactAudioCopy v0.95a5
#
DISCID=3612b615
DTITLE=Various Artist - Akella Presents - Country Blues - vol.10  CD1
DYEAR=2010
DGENRE=Blues
TTITLE0=Being There With You - HANK SHIZZOE
TTITLE1=The Trawlerman's Song - MARK KNOPFLER
TTITLE2=Wonderful World - MICK MARTIN
TTITLE3=Cold Outside - BIG HOUSE
TTITLE4=New York City - SHAVER
TTITLE5=Saturday Night Special - LYNYRD SKYNYRD
TTITLE6=Sugar-Sugar (In My Life) - JOHN FOGERTY
TTITLE7=Valley Way - GREG HARRIS
TTITLE8=One Way Gal - The NOTTING HILLBILLIES
TTITLE9=Wanted Man - GEORGE THOROGOOD
TTITLE10=Old Nightcat - R.J.MISCHO
TTITLE11=Hold On - J.J.CALE
TTITLE12=Once Upon a Time - JIMMY NAIL
TTITLE13=Blue Highway - BILLY C.FARLOW and BLEU JACKSON
TTITLE14=What Do We Do Now - JOHN HIATT
TTITLE15=You and Your Friend - DIRE STRAITS
TTITLE16=I Will Walk with You - JOHN FOGERTY
TTITLE17=Daddy's Gone to Knoxville - MARK KNOPFLER
TTITLE18=Poison Girl (Album Version) - CHRIS WHITLEY
TTITLE19=Ice Cream Man - TONY JOE WHITE
TTITLE20=Friday - J.J.CALE
EXTD=
EXTT0=
EXTT1=
EXTT2=
EXTT3=
EXTT4=
EXTT5=
EXTT6=
EXTT7=
EXTT8=
EXTT9=
EXTT10=
EXTT11=
EXTT12=
EXTT13=
EXTT14=
EXTT15=
EXTT16=
EXTT17=
EXTT18=
EXTT19=
EXTT20=
PLAYORDER=
